<svg xmlns="http://www.w3.org/2000/svg" width="118.282" height="107.306" viewBox="0 0 118.282 107.306">
  <g id="Logo_big" data-name="Logo big" style="isolation: isolate">
    <rect id="Rectangle_30" data-name="Rectangle 30" width="3.154" height="6.308" transform="translate(57.564 69.424)"/>
    <rect id="Rectangle_31" data-name="Rectangle 31" width="3.154" height="6.308" transform="translate(57.564 31.573)"/>
    <rect id="Rectangle_32" data-name="Rectangle 32" width="6.308" height="3.154" transform="translate(37.062 52.076)"/>
    <rect id="Rectangle_33" data-name="Rectangle 33" width="6.308" height="3.154" transform="translate(74.912 52.076)"/>
    <rect id="Rectangle_34" data-name="Rectangle 34" width="6.312" height="3.154" transform="translate(71.4 63.688) rotate(45)"/>
    <rect id="Rectangle_35" data-name="Rectangle 35" width="6.312" height="3.154" transform="translate(44.636 36.924) rotate(45)"/>
    <rect id="Rectangle_36" data-name="Rectangle 36" width="3.154" height="6.312" transform="translate(46.875 63.687) rotate(45)"/>
    <rect id="Rectangle_37" data-name="Rectangle 37" width="3.154" height="6.312" transform="translate(73.637 36.924) rotate(45)"/>
    <path id="Path_65" data-name="Path 65" d="M137.274,167.266c-5.709,0-12.163-2.184-18.913-6.489-10.542-6.722-20.65-17.877-28.463-31.409S77.48,101.506,76.929,89.015C76.362,76.155,80.157,66.7,87.616,62.4s17.544-2.866,28.4,4.054c10.542,6.722,20.651,17.877,28.463,31.409s12.418,27.862,12.969,40.353c.567,12.86-3.229,22.313-10.688,26.619A18.7,18.7,0,0,1,137.274,167.266ZM97.119,63.114a15.626,15.626,0,0,0-7.926,2.012c-6.39,3.689-9.627,12.123-9.114,23.749.529,11.994,4.986,25.815,12.551,38.916s17.3,23.87,27.426,30.326c9.812,6.257,18.734,7.67,25.124,3.982s9.627-12.123,9.114-23.749c-.529-11.994-4.986-25.815-12.551-38.916s-17.3-23.87-27.426-30.326C108.085,65.134,102.212,63.114,97.119,63.114Z" transform="translate(-58.048 -59.96)"/>
    <path id="Path_66" data-name="Path 66" d="M97.106,167.266a18.7,18.7,0,0,1-9.484-2.435c-7.459-4.306-11.254-13.76-10.688-26.619.551-12.491,5.157-26.822,12.969-40.353s17.921-24.685,28.463-31.409c10.852-6.92,20.938-8.362,28.4-4.054s11.254,13.76,10.688,26.619c-.551,12.491-5.157,26.822-12.969,40.353s-17.921,24.686-28.463,31.409c-6.75,4.3-13.2,6.489-18.913,6.489ZM137.26,63.114c-5.093,0-10.966,2.02-17.2,5.995C109.939,75.565,100.2,86.334,92.636,99.435s-12.021,26.921-12.551,38.916c-.513,11.626,2.724,20.06,9.114,23.749s15.311,2.275,25.124-3.982c10.123-6.456,19.862-17.225,27.426-30.326S153.77,100.87,154.3,88.875c.513-11.626-2.724-20.06-9.114-23.749a15.629,15.629,0,0,0-7.925-2.012Z" transform="translate(-58.049 -59.96)"/>
    <path id="Path_67" data-name="Path 67" d="M112.141,151.061c-15.624,0-30.339-3.177-41.431-8.945C59.289,136.177,53,128.163,53,119.55s6.289-16.627,17.71-22.565C81.8,91.217,96.517,88.04,112.141,88.04s30.339,3.177,41.431,8.945c11.421,5.939,17.71,13.953,17.71,22.565s-6.289,16.627-17.71,22.565C142.48,147.884,127.765,151.061,112.141,151.061Zm0-59.867c-30.871,0-55.987,12.72-55.987,28.356s25.116,28.356,55.987,28.356,55.987-12.72,55.987-28.356-25.116-28.356-55.987-28.356Z" transform="translate(-53 -65.898)"/>
    <circle id="Ellipse_2" data-name="Ellipse 2" cx="11.828" cy="11.828" r="11.828" transform="translate(47.313 41.824)"/>
    <path id="Path_68" data-name="Path 68" d="M124.405,137.811a13.405,13.405,0,1,1,13.405-13.405A13.42,13.42,0,0,1,124.405,137.811Zm0-23.656a10.251,10.251,0,1,0,10.251,10.251A10.263,10.263,0,0,0,124.405,114.154Z" transform="translate(-65.264 -70.753)"/>
  </g>
</svg>
